<?xml version="1.0" encoding="UTF-8" standalone="no"?>
<!DOCTYPE svg PUBLIC "-//W3C//DTD SVG 1.1//EN" "http://www.w3.org/Graphics/SVG/1.1/DTD/svg11.dtd">
<svg width="100%" height="100%" viewBox="0 0 1020 592" version="1.1" xmlns="http://www.w3.org/2000/svg" xmlns:xlink="http://www.w3.org/1999/xlink" xml:space="preserve" xmlns:serif="http://www.serif.com/" style="fill-rule:evenodd;clip-rule:evenodd;stroke-linecap:round;stroke-linejoin:round;stroke-miterlimit:1.5;">
    <g transform="matrix(1,0,0,1.08824,-69.145,-2324.77)">
        <rect id="Logo-10" serif:id="Logo 10" x="69.145" y="2136.27" width="1019.81" height="543.593" style="fill:none;"/>
        <g id="Logo-101" serif:id="Logo 10">
            <g transform="matrix(1,0,0,0.918919,-255.658,1481.16)">
                <path d="M626.016,882.349C654.135,819.746 717.027,776.092 790.049,776.092C841.553,776.092 888.035,797.791 920.812,832.554C967.201,833.731 1009.25,852.509 1040.5,882.468C1045.45,882.057 1050.45,881.847 1055.51,881.847C1154.7,881.847 1235.24,962.382 1235.24,1061.58C1235.24,1160.77 1154.7,1241.31 1055.51,1241.31L612.509,1241.31C513.314,1241.31 432.78,1160.77 432.78,1061.58C432.78,962.382 513.314,881.847 612.509,881.847C617.053,881.847 621.557,882.017 626.016,882.349Z" style="fill:rgb(147,51,234);fill-opacity:0.3;"/>
                <path d="M645.666,915.336C663.358,852.233 721.33,805.893 790.049,805.893C837.555,805.893 879.936,828.028 907.409,862.549C910.308,862.381 913.23,862.296 916.172,862.296C961.332,862.296 1001.86,882.297 1029.36,913.929C1037.85,912.431 1046.59,911.648 1055.51,911.648C1138.26,911.648 1205.44,978.829 1205.44,1061.58C1205.44,1144.33 1138.26,1211.51 1055.51,1211.51L612.509,1211.51C529.761,1211.51 462.58,1144.33 462.58,1061.58C462.58,978.829 529.761,911.648 612.509,911.648C623.902,911.648 634.999,912.923 645.666,915.336Z" style="fill:rgb(147,51,234);fill-opacity:0.5;"/>
                <path d="M612.509,1179.62C547.362,1179.62 494.47,1126.73 494.47,1061.58C494.47,996.43 547.362,943.538 612.509,943.538C634.227,943.538 654.583,949.416 672.071,959.666C672.03,958.39 672.01,957.108 672.01,955.822C672.01,951.674 672.224,947.576 672.642,943.538C678.794,884.154 729.049,837.783 790.049,837.783C833.632,837.783 871.73,861.454 892.176,896.631C899.925,895.028 907.951,894.186 916.172,894.186C955.706,894.186 990.727,913.663 1012.15,943.538C1013.69,945.682 1015.16,947.88 1016.55,950.127C1028.75,945.859 1041.86,943.538 1055.51,943.538C1120.65,943.538 1173.55,996.43 1173.55,1061.58C1173.55,1126.73 1120.65,1179.62 1055.51,1179.62L612.509,1179.62Z" style="fill:url(#_Linear1);"/>
            </g>
            <g transform="matrix(1,0,0,0.918919,-255.658,1481.16)">
                <path d="M1202.62,943.538C1228.6,975.864 1244.15,1016.92 1244.15,1061.58C1244.15,1106.24 1228.6,1147.29 1202.62,1179.62" style="fill:none;stroke:rgb(147,51,234);stroke-opacity:0.8;stroke-width:35.42px;"/>
            </g>
            <g transform="matrix(1,0,0,0.918919,-255.658,1481.16)">
                <path d="M1297.39,969.859C1308.22,998.371 1314.15,1029.29 1314.15,1061.58C1314.15,1093.87 1308.22,1124.78 1297.39,1153.3" style="fill:none;stroke:rgb(147,51,234);stroke-opacity:0.5;stroke-width:35.42px;"/>
            </g>
            <g transform="matrix(1,0,0,0.918919,-254.742,1481.16)">
                <path d="M371.109,1153.3C360.28,1124.78 354.35,1093.87 354.35,1061.58C354.35,1029.29 360.28,998.371 371.109,969.859" style="fill:none;stroke:rgb(147,51,234);stroke-opacity:0.5;stroke-width:35.42px;"/>
            </g>
            <g transform="matrix(1,0,0,0.918919,-254.742,1481.16)">
                <path d="M465.878,1179.62C439.899,1147.29 424.348,1106.24 424.348,1061.58C424.348,1016.92 439.899,975.864 465.878,943.538" style="fill:none;stroke:rgb(147,51,234);stroke-opacity:0.8;stroke-width:35.42px;"/>
            </g>
        </g>
    </g>
    <defs>
        <linearGradient id="_Linear1" x1="0" y1="0" x2="1" y2="0" gradientUnits="userSpaceOnUse" gradientTransform="matrix(1.40554e-14,229.541,-229.541,1.40554e-14,844.523,1074.94)"><stop offset="0" style="stop-color:rgb(147,51,234);stop-opacity:1"/><stop offset="0.53" style="stop-color:rgb(135,39,221);stop-opacity:1"/><stop offset="1" style="stop-color:rgb(93,0,177);stop-opacity:1"/></linearGradient>
    </defs>
</svg>
